<svg width="24" height="33" viewBox="0 0 24 33" fill="none" xmlns="http://www.w3.org/2000/svg">
<g id="Lager_1" clip-path="url(#clip0_7_35)">
<path id="Vector" d="M18.0192 6.00637L18.1589 6.84148H19.0056H23V32.0062H1V6.84148H4.99444H5.84114L5.98075 6.00637C6.45235 3.18537 8.96127 1 12.0032 1C15.044 1 17.5475 3.18428 18.0192 6.00637ZM16.6672 6.84148H17.9485L17.6372 5.59854C17.0112 3.09866 14.7179 1.25439 12.0032 1.25439C9.2885 1.25439 6.9952 3.09866 6.36912 5.59854L6.05783 6.84148H7.33916H16.6672ZM21.7061 31.7518H22.7061V30.7518V30.7456V8.08964V7.08964H21.7061H19.1136H18.1136V8.08964V9.46858H17.8133V8.08964V7.08964H16.8133H7.19936H6.19936V8.08964V9.46858H5.89913V8.08964V7.08964H4.89913H2.30024H1.30024V8.08964V30.7518V31.7518H2.30024H21.7061Z" fill="black" stroke="black" stroke-width="2"/>
</g>
<defs>
<clipPath id="clip0_7_35">
<rect width="24" height="33" fill="white"/>
</clipPath>
</defs>
</svg>
