<svg width="675" height="76" viewBox="0 0 675 76" fill="none" xmlns="http://www.w3.org/2000/svg">
<g clip-path="url(#clip0_35_2899)">
<path d="M0 1.70288H13.6954V32.2323H45.5467V1.70288H59.2421V74.2816H45.5467V41.6177H13.6954V74.2816H0V1.70288Z" fill="#161616"/>
<path d="M72.1021 46.8575V1.70288H85.7976V46.5339C85.7976 59.5563 91.8521 66.4913 102.037 66.4913C112.223 66.4913 118.17 59.5563 118.17 46.5339V1.70288H130.164V46.8498C130.164 65.7439 119.12 75.9923 101.179 75.9923C83.2378 75.9923 72.0945 65.8517 72.0945 46.8498L72.1021 46.8575Z" fill="#161616"/>
<path d="M142.472 1.70288H160.628L171.135 32.5483L181.114 62.7541C184.195 53.361 187.375 43.7522 190.985 32.5483L201.285 1.70288H219.441V74.2816H207.018V13.2381C203.937 23.5944 200.757 33.8351 197.568 43.8754L187.805 74.297H173.151L163.173 43.9833C160.306 35.1219 157.118 24.7733 153.83 14.0934V74.297H142.472V1.70288Z" fill="#161616"/>
<path d="M276.721 55.0716H247.844L241.046 74.2816H228.515L255.377 1.70288H271.088L298.05 74.2816H283.504L276.706 55.0716H276.721ZM273.326 45.6785L272.797 44.0758C268.766 32.5483 265.363 22.7314 262.183 12.7989C259.209 22.7237 255.921 32.5483 251.783 44.0758L251.254 45.6785H273.334H273.326Z" fill="#161616"/>
<path d="M306.021 1.70288H320.881L341.16 34.5748C345.934 42.2573 350.08 49.6238 354.326 56.8824V1.70288H366.32V74.2816H351.46L331.61 42.3652C326.407 34.0431 322.375 26.4609 318.022 18.9865V74.2739H306.028V1.70288H306.021Z" fill="#161616"/>
<path d="M442.216 1.70288H455.911V74.2816H442.216V1.70288Z" fill="#161616"/>
<path d="M501.427 0C514.487 0 526.588 6.5112 531.999 21.2365L518.733 25.1818C516.188 15.1491 510.348 9.49326 501.427 9.49326C489.326 9.49326 481.363 20.0576 481.363 37.9884C481.363 55.9193 489.112 66.4836 501.535 66.4836C512.893 66.4836 519.476 58.8012 519.476 45.7788V44.0681H499.734V34.675H532.006V74.274H522.557L522.135 65.2045H522.028C517.146 72.571 509.712 75.9846 500.477 75.9846C481.049 75.9846 466.718 60.1882 466.718 37.9884C466.718 15.7887 481.256 0 501.427 0Z" fill="#161616"/>
<path d="M545.51 1.70288H559.206V32.2323H591.057V1.70288H604.752V74.2816H591.057V41.6177H559.206V74.2816H545.51V1.70288Z" fill="#161616"/>
<path d="M638.275 11.096H615.237V1.70288H675.008V11.096H651.97V74.2816H638.275V11.096Z" fill="#161616"/>
<path d="M379.924 1.70288H429.448V11.096H393.619V32.2863H425.47V41.5715H393.619V64.8962H429.501V74.2893H379.924V1.70288Z" fill="#161616"/>
</g>
<defs>
<clipPath id="clip0_35_2899">
<rect width="675" height="76" fill="white"/>
</clipPath>
</defs>
</svg>
